<?xml version="1.0" encoding="iso-8859-1"?>
<!DOCTYPE svg PUBLIC "-//W3C//DTD SVG 1.1//EN" "http://www.w3.org/Graphics/SVG/1.1/DTD/svg11.dtd">
<svg version="1.1" id="Layer_1" xmlns="http://www.w3.org/2000/svg" xmlns:xlink="http://www.w3.org/1999/xlink" x="0px" y="0px"
	 width="444.496px" height="287.159px" viewBox="0 0 444.496 287.159" enable-background="new 0 0 444.496 287.159"
	 xml:space="preserve">
<linearGradient id="SVGID_1_" gradientUnits="userSpaceOnUse" x1="282.2903" y1="143.5797" x2="5.9408" y2="143.5797">
	<stop  offset="0" style="stop-color:#EC1C24"/>
	<stop  offset="0.338" style="stop-color:#A72A30"/>
	<stop  offset="0.6475" style="stop-color:#703639"/>
	<stop  offset="0.8765" style="stop-color:#4D3D3F"/>
	<stop  offset="1" style="stop-color:#404041"/>
</linearGradient>
<path fill-rule="evenodd" clip-rule="evenodd" fill="url(#SVGID_1_)" d="M300.918,0c79.295,0,143.579,64.283,143.579,143.579
	c0,79.298-64.284,143.581-143.579,143.581c-53.833,0-100.736-29.63-125.315-73.465l-0.012-0.001
	c-37.366-44.37-74.296-89.919-129.802-85.537c45.597-45.287,66.443-7.093,104.872-10.809c9.644-0.933,15.529-17.801,0-21.01
	c-15.439-3.19-41.633,7.596-48.355-15.34c16.389,4.933,37.422-8.333,75.637-11.566C203.088,27.821,248.751,0,300.918,0L300.918,0z
	 M0,167.608c62.033-13.584,68.925,31.265,124.963,16.781C79.687,139.637,35.993,131.621,0,167.608L0,167.608z M381.271,150.648
	c-8.067-0.322-11.403,2.023,0,12.651C381.271,159.083,381.271,154.866,381.271,150.648L381.271,150.648z M273.536,77.985
	c-1.007,1.197-2.013,2.392-3.021,3.589C284.726,90.532,285.637,87.742,273.536,77.985L273.536,77.985z M297.168,103.825
	c5.445,5.912,10.891,11.823,16.336,17.735c1.089-1.296,2.178-2.592,3.267-3.889c10.989,4.262,20.673,10.258,30.18,16.491
	C333.993,121.141,318.428,110.205,297.168,103.825L297.168,103.825z M96.23,122.256c53.621,39.446,82.367-18.844,128.283-1.542
	c8.355,3.148,11.417,9.677,15.021,16.802c12.698,25.106,35.744,33.57,70.015,19.095c5.092,1.782,10.184,3.564,15.275,5.346
	c-5.686-4.242-11.372-8.486-17.058-12.728c-32.017,18.333-59.288,0.43-59.83-30.044c-22.339-15.646-43.357-22.099-71.287-17.058
	C157.711,137.146,119.459,131.287,96.23,122.256L96.23,122.256z M246.371,65.991c16.936-1.244,32.096,4.395,44.287,21.53
	c13.121,3.036,25.36,7.614,35.487,15.89c-0.393,1.871-0.788,3.744-1.181,5.614c21.864,14.381,43.729,28.761,65.593,43.14
	c-0.196,4.137-0.393,8.273-0.589,12.409c4.573,4.443,9.305,9.115,5.613,18.32c-0.93,2.321-3.153,2.825-4.727,1.477
	c-15.659-13.404-36.093-24.106-44.423-15.077c-7.906,8.569,2.502,17.082,18.512,20.911c4.37,0.574,5.556,5.414,0,6.513
	c-8.112,0.114-16.225,0.228-24.34,0.342c-3.414-17.733-18.31-25-33.252-32.224c-23.014,12.401-43.751,11.114-62.047-4.799
	c-34.099,13.895-52.121,31.7-36.402,57.715c21.666,26.844,54.833,44.021,92.017,44.021c65.276,0,118.19-52.917,118.19-118.194
	c0-65.275-52.914-118.191-118.19-118.191c-37.117,0-70.229,17.113-91.898,43.871c14.619,1.021,31.167,3.654,50.023,8.737
	C257.257,72.472,252.902,68.55,246.371,65.991z"/>
</svg>
